{
  "accessors": [
    {
      "bufferView": 2,
      "componentType": 5126,
      "count": 7216,
      "max": [
        1.2744474411010742,
        2.8049373626708984,
        3.564913034439087
      ],
      "min": [
        -1.2744476795196533,
        -4.564424991607666,
        -4.574357032775879
      ],
      "type": "VEC3"
    },
    {
      "bufferView": 2,
      "byteOffset": 86592,
      "componentType": 5126,
      "count": 7216,
      "max": [
        1.0,
        0.9986875653266907,
        0.9974390864372253
      ],
      "min": [
        -1.0,
        -0.9983617663383484,
        -0.9951769113540649
      ],
      "type": "VEC3"
    },
    {
      "bufferView": 1,
      "componentType": 5126,
      "count": 7216,
      "max": [
        1.0,
        1.0
      ],
      "min": [
        0.0,
        0.0
      ],
      "type": "VEC2"
    },
    {
      "bufferView": 0,
      "componentType": 5125,
      "count": 12456,
      "type": "SCALAR"
    }
  ],
  "asset": {
    "extras": {
      "author": "cloclo (https://sketchfab.com/cloclo)",
      "license": "CC-BY-4.0 (http://creativecommons.org/licenses/by/4.0/)",
      "source": "https://sketchfab.com/3d-models/low-poly-whale-bones-3f7eb8f492fd4be19796a18c27113653",
      "title": "Low Poly Whale Bones"
    },
    "generator": "Sketchfab-12.66.0",
    "version": "2.0"
  },
  "bufferViews": [
    {
      "buffer": 0,
      "byteLength": 49824,
      "name": "floatBufferViews",
      "target": 34963
    },
    {
      "buffer": 0,
      "byteLength": 57728,
      "byteOffset": 49824,
      "byteStride": 8,
      "name": "floatBufferViews",
      "target": 34962
    },
    {
      "buffer": 0,
      "byteLength": 173184,
      "byteOffset": 107552,
      "byteStride": 12,
      "name": "floatBufferViews",
      "target": 34962
    }
  ],
  "buffers": [
    {
      "byteLength": 280736,
      "uri": "scene.bin"
    }
  ],
  "materials": [
    {
      "doubleSided": true,
      "name": "Scene_-_Root",
      "pbrMetallicRoughness": {
        "metallicFactor": 0.0,
        "roughnessFactor": 0.6
      }
    }
  ],
  "meshes": [
    {
      "name": "Whale__0",
      "primitives": [
        {
          "attributes": {
            "NORMAL": 1,
            "POSITION": 0,
            "TEXCOORD_0": 2
          },
          "indices": 3,
          "material": 0,
          "mode": 4
        }
      ]
    }
  ],
  "nodes": [
    {
      "children": [
        1
      ],
      "matrix": [
        1.0,
        0.0,
        0.0,
        0.0,
        0.0,
        2.220446049250313e-16,
        -1.0,
        0.0,
        0.0,
        1.0,
        2.220446049250313e-16,
        0.0,
        0.0,
        0.0,
        0.0,
        1.0
      ],
      "name": "Sketchfab_model"
    },
    {
      "children": [
        2
      ],
      "matrix": [
        1.0,
        0.0,
        0.0,
        0.0,
        0.0,
        0.0,
        1.0,
        0.0,
        0.0,
        -1.0,
        0.0,
        0.0,
        0.0,
        0.0,
        0.0,
        1.0
      ],
      "name": "c8d6dae8d2eb4ff79aa7a275f55288ae.fbx"
    },
    {
      "children": [
        3
      ],
      "name": "RootNode"
    },
    {
      "children": [
        4
      ],
      "matrix": [
        99.99999999997875,
        1.670308178349345e-11,
        -6.516826829283211e-05,
        0.0,
        -4.5515589742382174e-05,
        -71.56763495565197,
        -69.84319652602983,
        0.0,
        -4.663940002470019e-05,
        69.84319652604466,
        -71.56763495563678,
        0.0,
        83.48924255371094,
        71.26074981689453,
        -100.54695892333984,
        1.0
      ],
      "name": "Whale"
    },
    {
      "mesh": 0,
      "name": "Whale__0"
    }
  ],
  "scene": 0,
  "scenes": [
    {
      "name": "Sketchfab_Scene",
      "nodes": [
        0
      ]
    }
  ]
}
